<?xml version="1.0" encoding="iso-8859-1"?>
<!-- Generator: Adobe Illustrator 16.0.0, SVG Export Plug-In . SVG Version: 6.00 Build 0)  -->
<!DOCTYPE svg PUBLIC "-//W3C//DTD SVG 1.1//EN" "http://www.w3.org/Graphics/SVG/1.1/DTD/svg11.dtd">
<svg version="1.1" id="Capa_1" xmlns="http://www.w3.org/2000/svg" xmlns:xlink="http://www.w3.org/1999/xlink" x="0px" y="0px"
	 width="129.637px" height="129.637px" viewBox="0 0 129.637 129.637" style="enable-background:new 0 0 129.637 129.637;"
	 xml:space="preserve">
<g>
	<g>
		<path id="path3824" d="M19.901,46.213c7.304-17.614,24.664-30.006,44.916-30.006c20.256,0,37.616,12.392,44.916,30.006
			c1.709,4.131,0.205,4.676-2.169,0.892c-8.903-14.229-24.718-23.697-42.747-23.697c-18.031,0-33.839,9.468-42.751,23.699
			C19.7,50.894,18.189,50.34,19.901,46.213z M2.217,69.164c0.254,0.191,0.433,0.277,0.611,0.378c0,0,0.652,0.379,1.464,0.847
			c0.804,0.47,1.689,3.198,2.255,6.052c0.569,2.851,0.876,5.604,0.397,6.214c-0.47,0.606-1.045,1.286-1.25,1.549
			c-0.118,0.154-0.229,0.316-0.334,0.485c-0.451,0.751-0.729,1.578-0.808,2.42c-0.133,1.417,0.794,3.644,1.857,4.551
			c1.072,0.906,2.278,1.154,2.331,1.166c0.346,0.066,0.598,0.098,0.852,0.116c0,0,0.693,0.094,1.551,0.203
			c0.853,0.114,2.661,2.288,4.284,4.706c1.619,2.413,2.953,4.843,2.747,5.591c-0.205,0.746-0.473,1.599-0.56,1.914
			c-0.054,0.187-0.096,0.378-0.129,0.574c-0.259,1.727,0.234,3.461,1.502,4.725c1.049,1.054,2.432,1.58,3.815,1.58
			c0.277,0,0.551-0.036,0.827-0.077c0.324-0.05,0.529-0.119,0.738-0.183c0,0,0.722-0.191,1.614-0.429
			c0.89-0.237,3.441,1.074,5.853,2.694c2.418,1.617,4.576,3.353,4.671,4.119c0.091,0.764,0.169,1.649,0.211,1.973
			c0.027,0.192,0.058,0.384,0.105,0.573c0.419,1.701,1.536,3.116,3.188,3.798c0.675,0.278,1.379,0.415,2.068,0.415
			c0.999,0,1.966-0.287,2.805-0.798c0.341-0.213,0.612-0.416,0.857-0.642c0,0,0.535-0.408,1.197-0.915
			c0.406-0.312,1.618-0.326,3.157-0.159c1.758,0.191,4.548,0.748,6.223,1.221c1.484,0.422,2.591,0.873,2.829,1.288
			c0.379,0.676,0.791,1.465,0.954,1.748c0.096,0.168,0.205,0.337,0.314,0.492c1.045,1.403,2.614,2.283,4.404,2.283
			s3.359-0.878,4.341-2.217c0.205-0.276,0.312-0.479,0.417-0.687c0,0,0.372-0.635,0.828-1.424c0.458-0.784,3.178-1.651,6.031-2.222
			c2.852-0.57,5.623-0.859,6.255-0.369c0.629,0.49,1.315,1.062,1.56,1.254c0.144,0.117,0.302,0.222,0.456,0.319
			c0.89,0.539,1.857,0.826,2.852,0.826c0.693,0,1.392-0.137,2.067-0.41c1.655-0.689,2.769-2.102,3.166-3.716
			c0.079-0.317,0.096-0.532,0.118-0.746c0,0,0.101-0.737,0.224-1.651c0.118-0.913,2.299-2.765,4.713-4.385
			c2.413-1.622,4.863-2.951,5.634-2.737l1.392,0.388c0.34,0.128,0.685,0.224,1.036,0.281c0.378,0.052,0.656,0.091,0.931,0.091
			c1.382,0,2.76-0.531,3.818-1.583c1.264-1.264,1.752-3,1.501-4.638c-0.048-0.351-0.123-0.598-0.206-0.839
			c0,0-0.182-0.703-0.415-1.565c-0.228-0.866,1.086-3.39,2.706-5.808c1.619-2.415,3.357-4.575,4.133-4.671
			c0.775-0.099,1.651-0.174,1.953-0.215c0.182-0.022,0.364-0.055,0.542-0.091c1.734-0.425,3.148-1.542,3.833-3.198
			c0.684-1.654,0.474-3.444-0.388-4.863c-0.169-0.292-0.315-0.461-0.461-0.635c0,0-0.445-0.588-1.004-1.313
			c-0.338-0.438-0.383-1.67-0.237-3.207c0.169-1.793,0.734-4.612,1.209-6.287c0.42-1.487,0.876-2.596,1.296-2.83
			c0.675-0.381,1.464-0.794,1.738-0.947c0.169-0.101,0.33-0.2,0.483-0.306c1.419-1.054,2.299-2.623,2.299-4.414
			s-0.88-3.361-2.222-4.344c-0.292-0.216-0.533-0.346-0.78-0.47c0,0-0.615-0.355-1.373-0.794c-0.762-0.441-1.605-3.149-2.171-6.004
			c-0.57-2.854-0.876-5.605-0.397-6.217c0.47-0.61,1.045-1.295,1.245-1.554c0.124-0.155,0.237-0.318,0.341-0.486
			c0.894-1.486,1.105-3.28,0.422-4.932c-0.687-1.651-2.099-2.772-3.716-3.167c-0.34-0.081-0.584-0.104-0.833-0.125
			c0,0-0.719-0.096-1.604-0.216c-0.89-0.116-2.719-2.293-4.341-4.708c-1.62-2.416-2.959-4.852-2.753-5.598
			c0.207-0.745,0.479-1.599,0.561-1.913c0.053-0.189,0.096-0.383,0.13-0.575c0.258-1.728-0.23-3.459-1.498-4.728
			c-1.264-1.264-2.998-1.754-4.64-1.504c-0.333,0.049-0.55,0.12-0.765,0.188c0,0-0.723,0.189-1.604,0.427
			c-0.885,0.234-3.429-1.077-5.84-2.695c-2.418-1.622-4.575-3.356-4.671-4.121c-0.096-0.764-0.169-1.651-0.213-1.972
			c-0.027-0.19-0.057-0.384-0.104-0.571c-0.424-1.703-1.535-3.118-3.187-3.8c-1.656-0.688-3.451-0.477-4.868,0.385
			c-0.296,0.177-0.488,0.335-0.675,0.495c0,0-0.575,0.443-1.294,0.985c-0.711,0.546-3.551,0.301-6.402-0.267
			c-2.858-0.567-5.516-1.338-5.893-2.011c-0.383-0.673-0.796-1.462-0.953-1.748c-0.101-0.167-0.205-0.334-0.321-0.493
			c-1.043-1.411-2.617-2.292-4.405-2.292c-1.79,0-3.361,0.88-4.342,2.22c-0.201,0.268-0.307,0.466-0.412,0.665
			c0,0-0.369,0.643-0.829,1.435c-0.46,0.792-3.179,1.661-6.031,2.231c-1.09,0.217-2.167,0.397-3.116,0.509
			c-1.723,0.203-3.455-0.383-3.876-0.733c-0.334-0.271-0.626-0.511-0.775-0.628c-0.155-0.125-0.321-0.234-0.488-0.339
			c-1.488-0.896-3.276-1.107-4.932-0.42c-1.651,0.687-2.771,2.1-3.163,3.714c-0.081,0.319-0.101,0.542-0.124,0.762
			c0,0-0.096,0.734-0.22,1.637c-0.118,0.904-2.298,2.754-4.713,4.377c-2.417,1.621-4.844,2.959-5.595,2.752
			c-0.747-0.204-1.602-0.477-1.915-0.563c-0.187-0.051-0.383-0.093-0.575-0.126c-1.723-0.259-3.457,0.231-4.721,1.495
			c-1.268,1.266-1.761,3-1.506,4.642c0.047,0.317,0.109,0.516,0.168,0.714c0,0,0.086,0.328,0.219,0.813
			c0.115,0.448,0.054,2.287-0.789,3.882c-0.46,0.885-1.049,1.854-1.685,2.8c-0.621,0.923-1.253,1.808-1.843,2.554
			c-1.077,1.362-2.713,2.171-3.261,2.228c-0.424,0.042-0.798,0.078-0.985,0.104c-0.196,0.022-0.393,0.06-0.584,0.1
			c-1.688,0.42-3.103,1.539-3.792,3.192c-0.68,1.649-0.469,3.443,0.393,4.861c0.164,0.283,0.296,0.439,0.43,0.598
			c0,0,0.456,0.597,1.023,1.332c0.561,0.736,0.334,3.595-0.238,6.446c-0.565,2.855-1.336,5.514-2.006,5.894
			c-0.671,0.383-1.464,0.79-1.752,0.956c-0.172,0.098-0.339,0.208-0.497,0.32C0.88,61.457,0,63.031,0,64.818
			C0,66.608,0.88,68.177,2.217,69.164" fill="white"/>
	</g>
</g>
</svg>
