<?xml version="1.0" encoding="UTF-8" standalone="no"?>
<!-- Created with Inkscape (http://www.inkscape.org/) -->

<svg
   xmlns:dc="http://purl.org/dc/elements/1.1/"
   xmlns:cc="http://creativecommons.org/ns#"
   xmlns:rdf="http://www.w3.org/1999/02/22-rdf-syntax-ns#"
   xmlns:svg="http://www.w3.org/2000/svg"
   xmlns="http://www.w3.org/2000/svg"
   xmlns:sodipodi="http://sodipodi.sourceforge.net/DTD/sodipodi-0.dtd"
   xmlns:inkscape="http://www.inkscape.org/namespaces/inkscape"
   width="353"
   height="84"
   viewBox="0 0 353.00001 84.000001"
   id="svg2"
   version="1.1"
   inkscape:version="0.91 r13725"
   sodipodi:docname="logo.svg"
   inkscape:export-filename="/Users/Dave/dev/other/snocorp/invoicecola-web/img/logo-blue.png"
   inkscape:export-xdpi="58.37838"
   inkscape:export-ydpi="58.37838">
  <defs
     id="defs4" />
  <sodipodi:namedview
     id="base"
     pagecolor="#ffffff"
     bordercolor="#666666"
     borderopacity="1.0"
     inkscape:pageopacity="0.0"
     inkscape:pageshadow="2"
     inkscape:zoom="2.3541076"
     inkscape:cx="174.11379"
     inkscape:cy="42"
     inkscape:document-units="px"
     inkscape:current-layer="layer1"
     showgrid="false"
     showborder="true"
     units="px"
     inkscape:window-width="1440"
     inkscape:window-height="851"
     inkscape:window-x="0"
     inkscape:window-y="0"
     inkscape:window-maximized="1" />
  <metadata
     id="metadata7">
    <rdf:RDF>
      <cc:Work
         rdf:about="">
        <dc:format>image/svg+xml</dc:format>
        <dc:type
           rdf:resource="http://purl.org/dc/dcmitype/StillImage" />
        <dc:title></dc:title>
      </cc:Work>
    </rdf:RDF>
  </metadata>
  <g
     inkscape:label="Layer 1"
     inkscape:groupmode="layer"
     id="layer1"
     transform="translate(0,-968.36219)">
    <g
       id="g4187"
       transform="matrix(0.64611259,0,0,0.64611259,0.54870151,968.4834)"
       style="fill:#3f6184;fill-opacity:1">
      <g
         id="g4189"
         style="fill:#3f6184;fill-opacity:1">
        <path
           d="m 19.901,46.213 c 7.304,-17.614 24.664,-30.006 44.916,-30.006 20.256,0 37.616,12.392 44.916,30.006 1.709,4.131 0.205,4.676 -2.169,0.892 C 98.661,32.876 82.846,23.408 64.817,23.408 46.786,23.408 30.978,32.876 22.066,47.107 19.7,50.894 18.189,50.34 19.901,46.213 Z M 2.217,69.164 c 0.254,0.191 0.433,0.277 0.611,0.378 0,0 0.652,0.379 1.464,0.847 0.804,0.47 1.689,3.198 2.255,6.052 0.569,2.851 0.876,5.604 0.397,6.214 -0.47,0.606 -1.045,1.286 -1.25,1.549 -0.118,0.154 -0.229,0.316 -0.334,0.485 -0.451,0.751 -0.729,1.578 -0.808,2.42 -0.133,1.417 0.794,3.644 1.857,4.551 1.072,0.906 2.278,1.154 2.331,1.166 0.346,0.066 0.598,0.098 0.852,0.116 0,0 0.693,0.094 1.551,0.203 0.853,0.114 2.661,2.288 4.284,4.706 1.619,2.413 2.953,4.843 2.747,5.591 -0.205,0.746 -0.473,1.599 -0.56,1.914 -0.054,0.187 -0.096,0.378 -0.129,0.574 -0.259,1.727 0.234,3.461 1.502,4.725 1.049,1.054 2.432,1.58 3.815,1.58 0.277,0 0.551,-0.036 0.827,-0.077 0.324,-0.05 0.529,-0.119 0.738,-0.183 0,0 0.722,-0.191 1.614,-0.429 0.89,-0.237 3.441,1.074 5.853,2.694 2.418,1.617 4.576,3.353 4.671,4.119 0.091,0.764 0.169,1.649 0.211,1.973 0.027,0.192 0.058,0.384 0.105,0.573 0.419,1.701 1.536,3.116 3.188,3.798 0.675,0.278 1.379,0.415 2.068,0.415 0.999,0 1.966,-0.287 2.805,-0.798 0.341,-0.213 0.612,-0.416 0.857,-0.642 0,0 0.535,-0.408 1.197,-0.915 0.406,-0.312 1.618,-0.326 3.157,-0.159 1.758,0.191 4.548,0.748 6.223,1.221 1.484,0.422 2.591,0.873 2.829,1.288 0.379,0.676 0.791,1.465 0.954,1.748 0.096,0.168 0.205,0.337 0.314,0.492 1.045,1.403 2.614,2.283 4.404,2.283 1.79,0 3.359,-0.878 4.341,-2.217 0.205,-0.276 0.312,-0.479 0.417,-0.687 0,0 0.372,-0.635 0.828,-1.424 0.458,-0.784 3.178,-1.651 6.031,-2.222 2.852,-0.57 5.623,-0.859 6.255,-0.369 0.629,0.49 1.315,1.062 1.56,1.254 0.144,0.117 0.302,0.222 0.456,0.319 0.89,0.539 1.857,0.826 2.852,0.826 0.693,0 1.392,-0.137 2.067,-0.41 1.655,-0.689 2.769,-2.102 3.166,-3.716 0.079,-0.317 0.096,-0.532 0.118,-0.746 0,0 0.101,-0.737 0.224,-1.651 0.118,-0.913 2.299,-2.765 4.713,-4.385 2.413,-1.622 4.863,-2.951 5.634,-2.737 l 1.392,0.388 c 0.34,0.128 0.685,0.224 1.036,0.281 0.378,0.052 0.656,0.091 0.931,0.091 1.382,0 2.76,-0.531 3.818,-1.583 1.264,-1.264 1.752,-3 1.501,-4.638 -0.048,-0.351 -0.123,-0.598 -0.206,-0.839 0,0 -0.182,-0.703 -0.415,-1.565 -0.228,-0.866 1.086,-3.39 2.706,-5.808 1.619,-2.415 3.357,-4.575 4.133,-4.671 0.775,-0.099 1.651,-0.174 1.953,-0.215 0.182,-0.022 0.364,-0.055 0.542,-0.091 1.734,-0.425 3.148,-1.542 3.833,-3.198 0.684,-1.654 0.474,-3.444 -0.388,-4.863 -0.169,-0.292 -0.315,-0.461 -0.461,-0.635 0,0 -0.445,-0.588 -1.004,-1.313 -0.338,-0.438 -0.383,-1.67 -0.237,-3.207 0.169,-1.793 0.734,-4.612 1.209,-6.287 0.42,-1.487 0.876,-2.596 1.296,-2.83 0.675,-0.381 1.464,-0.794 1.738,-0.947 0.169,-0.101 0.33,-0.2 0.483,-0.306 1.419,-1.054 2.299,-2.623 2.299,-4.414 0,-1.791 -0.88,-3.361 -2.222,-4.344 -0.292,-0.216 -0.533,-0.346 -0.78,-0.47 0,0 -0.615,-0.355 -1.373,-0.794 -0.762,-0.441 -1.605,-3.149 -2.171,-6.004 -0.57,-2.854 -0.876,-5.605 -0.397,-6.217 0.47,-0.61 1.045,-1.295 1.245,-1.554 0.124,-0.155 0.237,-0.318 0.341,-0.486 0.894,-1.486 1.105,-3.28 0.422,-4.932 -0.687,-1.651 -2.099,-2.772 -3.716,-3.167 -0.34,-0.081 -0.584,-0.104 -0.833,-0.125 0,0 -0.719,-0.096 -1.604,-0.216 -0.89,-0.116 -2.719,-2.293 -4.341,-4.708 -1.62,-2.416 -2.959,-4.852 -2.753,-5.598 0.207,-0.745 0.479,-1.599 0.561,-1.913 0.053,-0.189 0.096,-0.383 0.13,-0.575 0.258,-1.728 -0.23,-3.459 -1.498,-4.728 -1.264,-1.264 -2.998,-1.754 -4.64,-1.504 -0.333,0.049 -0.55,0.12 -0.765,0.188 0,0 -0.723,0.189 -1.604,0.427 -0.885,0.234 -3.429,-1.077 -5.84,-2.695 C 95.382,13.784 93.225,12.05 93.129,11.285 93.033,10.521 92.96,9.634 92.916,9.313 92.889,9.123 92.859,8.929 92.812,8.742 92.388,7.039 91.277,5.624 89.625,4.942 87.969,4.254 86.174,4.465 84.757,5.327 c -0.296,0.177 -0.488,0.335 -0.675,0.495 0,0 -0.575,0.443 -1.294,0.985 C 82.077,7.353 79.237,7.108 76.386,6.54 73.528,5.973 70.87,5.202 70.493,4.529 70.11,3.856 69.697,3.067 69.54,2.781 69.439,2.614 69.335,2.447 69.219,2.288 68.176,0.877 66.602,-0.004 64.814,-0.004 c -1.79,0 -3.361,0.88 -4.342,2.22 -0.201,0.268 -0.307,0.466 -0.412,0.665 0,0 -0.369,0.643 -0.829,1.435 C 58.771,5.108 56.052,5.977 53.2,6.547 52.11,6.764 51.033,6.944 50.084,7.056 48.361,7.259 46.629,6.673 46.208,6.323 45.874,6.052 45.582,5.812 45.433,5.695 45.278,5.57 45.112,5.461 44.945,5.356 43.457,4.46 41.669,4.249 40.013,4.936 c -1.651,0.687 -2.771,2.1 -3.163,3.714 -0.081,0.319 -0.101,0.542 -0.124,0.762 0,0 -0.096,0.734 -0.22,1.637 -0.118,0.904 -2.298,2.754 -4.713,4.377 -2.417,1.621 -4.844,2.959 -5.595,2.752 -0.747,-0.204 -1.602,-0.477 -1.915,-0.563 -0.187,-0.051 -0.383,-0.093 -0.575,-0.126 -1.723,-0.259 -3.457,0.231 -4.721,1.495 -1.268,1.266 -1.761,3 -1.506,4.642 0.047,0.317 0.109,0.516 0.168,0.714 0,0 0.086,0.328 0.219,0.813 0.115,0.448 0.054,2.287 -0.789,3.882 -0.46,0.885 -1.049,1.854 -1.685,2.8 -0.621,0.923 -1.253,1.808 -1.843,2.554 -1.077,1.362 -2.713,2.171 -3.261,2.228 -0.424,0.042 -0.798,0.078 -0.985,0.104 -0.196,0.022 -0.393,0.06 -0.584,0.1 -1.688,0.42 -3.103,1.539 -3.792,3.192 -0.68,1.649 -0.469,3.443 0.393,4.861 0.164,0.283 0.296,0.439 0.43,0.598 0,0 0.456,0.597 1.023,1.332 C 7.336,47.54 7.109,50.399 6.537,53.25 5.972,56.105 5.201,58.764 4.531,59.144 3.86,59.527 3.067,59.934 2.779,60.1 2.607,60.198 2.44,60.308 2.282,60.42 0.88,61.457 0,63.031 0,64.818 c 0,1.79 0.88,3.359 2.217,4.346"
           id="path3824"
           inkscape:connector-curvature="0"
           style="fill:#3f6184;fill-opacity:1" />
      </g>
    </g>
    <text
       xml:space="preserve"
       style="font-style:normal;font-variant:normal;font-weight:normal;font-stretch:normal;font-size:65px;line-height:125%;font-family:Mistral;-inkscape-font-specification:'Mistral, Normal';text-align:start;letter-spacing:0px;word-spacing:0px;writing-mode:lr-tb;text-anchor:start;fill:#3f6184;fill-opacity:1;stroke:none;stroke-width:1px;stroke-linecap:butt;stroke-linejoin:miter;stroke-opacity:1;"
       x="95.524673"
       y="1032.1664"
       id="text4201"
       sodipodi:linespacing="125%"><tspan
         sodipodi:role="line"
         id="tspan4205"
         x="95.524673"
         y="1032.1664">Invoice Cola</tspan></text>
  </g>
</svg>
